<svg xmlns="http://www.w3.org/2000/svg" width="4342.94" height="659" viewBox="0 0 4342.94 659">
  <defs>
    <style>
      .cls-1 {
        fill: #fff;
        fill-rule: evenodd;
      }
    </style>
  </defs>
  <path class="cls-1" d="M1195.75,801.781A214.433,214.433,0,0,0,1098.53,779q-75.555,0-124.046,44.531T926,930.844q0,97.335,128.94,162.066l44.94,22.37q58.125,29.205,58.12,59.86,0,16.545-16.16,29.2Q1125.7,1217,1099.28,1217q-24.465,0-56.03-16.83A189.593,189.593,0,0,1,988.2,1156L906,1245.27q69.329,90.75,185.56,90.73,87.42,0,139.42-47.14Q1283,1241.7,1283,1171.22q0-52.965-28.75-92.34t-105.75-77.29l-48.73-24.309q-31.695-15.538-39.74-24.531t-8.03-19.7q0-14.087,12.66-23.563,12.645-9.468,35.04-9.484,40.875,0,91.03,50L1273,867.188Q1241.32,824.577,1195.75,801.781ZM1604.94,1202c-66,4-99-23-99-95V925h93V808h-93V677h-132v429c0,141,80,232,231,216V1202Zm583-136c0-149-109-271-264-271-156,0-265,122-265,271,0,148,111,268,247,268,62,0,118-22,157-65v54h125V1066Zm-132,1c0,80-59,145-132,145s-132-63-132-145c0-85,59-148,132-148S2055.94,985,2055.94,1067Zm239-42v298h132V1022c0-58,42-98,100-98,87,0,97,69,97,98v301h132V1025c0-135-85-230-229-230C2386.94,795,2294.94,894,2294.94,1025Zm919,134c-22,41-66,60-109,60-45,0-84-20-110-55l364-153c-25-138-129-216-253-216-146,0-264,122-264,271s118,269,264,269c128,0,219-71,249-176h-141Zm-249-100c3-88,64-148,140-148,42,0,78,17,102,46Zm1261-251h-132v301c0,58-42,98-100,98-87,0-97-69-97-98V808h-132v301c0,58-41,98-100,98-86,0-96-69-96-98V808h-132v297c0,136,85,231,228,231,68,0,125-28,164-73,38,45,95,73,165,73,140,0,232-100,232-231V808Zm370.73-6.219A214.422,214.422,0,0,0,4499.46,779q-75.57,0-124.05,44.531-48.495,44.532-48.49,107.313,0,97.335,128.94,162.066l44.94,22.37q58.125,29.205,58.12,59.86,0,16.545-16.15,29.2T4500.21,1217q-24.48,0-56.04-16.83a189.6,189.6,0,0,1-55.04-44.17l-82.21,89.27q69.33,90.75,185.57,90.73,87.42,0,139.42-47.14,52.005-47.16,52.01-117.64,0-52.965-28.75-92.34t-105.75-77.29l-48.73-24.309q-31.68-15.538-39.73-24.531t-8.04-19.7q0-14.087,12.66-23.563T4500.63,900q40.875,0,91.03,50l82.26-82.812Q4642.24,824.577,4596.67,801.781ZM423.515,770h15.2v0.31h3.1c1.808,0.525,4.435.7,6.2,1.242h1.55v0.31l2.792,0.311v0.31h1.24v0.31h1.241V773.1h0.93v0.31h1.241v0.31h0.93v0.311h0.93v0.31H459.8v0.31h0.93v0.311l1.861,0.31v0.311h0.62v0.31h0.931v0.31h0.62v0.311h0.93v0.31h0.621v0.31h0.93v0.311l1.861,0.62v0.311h0.62v0.31l2.791,0.931,0.311,0.621h0.62v0.31h0.62v0.311h0.62v0.31h0.621v0.31h0.62l0.31,0.621h0.62v0.311h0.621l0.31,0.62,1.24,0.311,0.31,0.62h0.621q0.155,0.31.31,0.621h0.62l0.31,0.621h0.62l0.311,0.621h0.62c0.1,0.206.207,0.413,0.31,0.62h0.62l0.62,0.931h0.621q0.309,0.467.62,0.931h0.62l0.621,0.932h0.62l0.62,0.931h0.31l0.31,0.62h0.621l1.55,1.863h0.621l1.55,1.862,5.583,5.276v0.621l2.171,1.862V802.9l1.24,0.931v0.62l0.931,0.621v0.621l0.93,0.621v0.62l0.93,0.621v0.621l0.621,0.31v0.621l0.62,0.31v0.621l0.62,0.31v0.621l0.62,0.31V811.9l0.621,0.311q0.155,0.62.31,1.241l0.62,0.31q0.154,0.621.31,1.242l0.621,0.31v0.621h0.31v0.621h0.31v0.62h0.31V817.8l0.62,0.31q0.156,0.621.31,1.242h0.31q0.156,0.621.311,1.241h0.31v0.931h0.31v0.621h0.31q0.311,0.932.62,1.862h0.31v0.931h0.311v0.621h0.31q0.154,0.776.31,1.552h0.31v0.931h0.31v0.621h0.31q1.551,5.12,3.1,10.242l1.86,10.552q0.156,6.672.31,13.346a76.5,76.5,0,0,1-6.512,31.036v0.931h-0.31v0.621h-0.311v0.931h-0.31q-0.309.931-.62,1.862h-0.31V898.8h-0.31v0.931h-0.31q-0.156.621-.311,1.242h-0.31q-0.155.619-.31,1.241l-0.62.31v0.621h-0.31v0.621h-0.31v0.621h-0.31v0.62l-0.621.311q-0.155.621-.31,1.241l-0.62.311q-0.156.62-.31,1.241l-0.621.31v0.621l-0.62.311v0.62l-0.62.311v0.62l-0.62.311v0.62l-0.621.311v0.621l-0.93.62v0.621l-0.93.621v0.62l-0.931.621v0.621l-0.93.621q-0.156.465-.31,0.931l-2.171,1.862v0.621l-1.861,1.551-5.272,5.587h-0.621l-1.861,2.173h-0.62l-0.93,1.241h-0.62l-0.621.931h-0.62l-0.62.931-0.931.311q-0.154.309-.31,0.62h-0.62l-0.31.621h-0.62l-0.311.621H481.2l-0.31.62h-0.62q-0.156.31-.31,0.621h-0.621q-0.155.311-.31,0.621l-1.24.31q-0.156.311-.31,0.621l-1.241.31-0.31.621h-0.62v0.31h-0.621v0.311h-0.62v0.31h-0.62v0.311h-0.62c-0.1.206-.207,0.413-0.311,0.62l-2.791.931v0.311h-0.62v0.31l-1.861.621v0.31h-0.93v0.311h-0.621v0.31l-1.55.31v0.311h-0.931v0.31h-0.62v0.31l-2.791.621v0.31H458.87v0.311h-0.93v0.31h-0.93v0.311l-2.171.31v0.31l-2.481.311v0.31h-1.551v0.31h-1.241v0.311h-1.55v0.31h-1.861v0.31h-2.171V949.7h-2.171v0.31h-3.1v0.311H434.37c-3.4,0-8.008.494-10.855-.311h-3.1V949.7h-2.171V949.39h-2.171v-0.31h-1.861v-0.31H412.66l-13.025-3.725v-0.31h-0.62v-0.31h-0.931v-0.311l-1.551-.31v-0.31h-0.62v-0.311h-0.93v-0.31l-1.861-.621v-0.31H392.5v-0.311h-0.931v-0.31l-1.24-.31V940.7H389.71q-0.154-.311-0.31-0.62h-0.62v-0.311h-0.62v-0.31h-0.62v-0.311h-0.621v-0.31H386.3l-0.31-.621-1.241-.31q-0.155-.31-0.31-0.621l-1.24-.31q-0.156-.31-0.31-0.621h-0.621l-0.31-.621h-0.62q-0.156-.309-0.31-0.62h-0.621q-0.155-.311-0.31-0.621h-0.62l-0.31-.621h-0.62l-0.621-.931h-0.62l-0.62-.931h-0.62l-0.621-.931h-0.62l-0.93-1.241h-0.621l-1.86-2.173h-0.621l-1.55-1.862-5.583-5.276v-0.621l-2.171-1.862q-0.155-.467-0.31-0.931l-0.93-.621v-0.621l-0.931-.621v-0.62l-0.93-.621v-0.621l-0.93-.62v-0.621l-0.621-.311v-0.62l-0.62-.311v-0.62l-0.62-.311v-0.62l-0.621-.311v-0.621l-0.62-.31q-0.154-.621-0.31-1.241l-0.62-.311v-0.621h-0.31v-0.62l-0.621-.311v-0.62h-0.31v-0.621h-0.31v-0.621h-0.31v-0.621h-0.31v-0.62l-0.62-.311q-0.467-1.4-.931-2.793h-0.31V898.18h-0.31q-0.311-.93-0.62-1.862h-0.311v-0.931h-0.31v-0.621h-0.31L343.811,883.9l-0.621-4.035c-1.786-5.666-2.169-12.387-2.171-19.863,0-3.659-.2-7.691.621-10.553q0.309-3.1.62-6.207h0.31v-1.552h0.31v-1.241h0.31V838.9h0.31v-1.242h0.311v-1.241q1.55-4.654,3.1-9.311h0.31v-0.621h0.31v-0.931h0.31v-0.621h0.31V824h0.311q0.309-.93.62-1.862h0.31V821.52h0.31v-0.931h0.31q0.156-.62.31-1.241h0.311v-0.621l0.62-.31V817.8h0.31v-0.621h0.31v-0.62h0.31v-0.621h0.31v-0.621l0.621-.31q0.154-.621.31-1.242l0.62-.31q0.155-.621.31-1.241l0.62-.311v-0.621l0.621-.31v-0.621l0.62-.31v-0.621l0.62-.31v-0.621l0.621-.31v-0.621l0.93-.621v-0.62l0.93-.621v-0.621l0.931-.621v-0.62l1.24-.931v-0.621l2.171-1.862V799.8l1.861-1.552,5.272-5.586h0.621l1.55-1.863h0.62c0.1-.206.207-0.413,0.311-0.62h0.31l0.62-.931h0.62l0.621-.932h0.62l0.62-.931h0.62l0.621-.931h0.62l0.31-.62h0.62q0.156-.311.31-0.621h0.621q0.155-.31.31-0.621h0.62l0.31-.621h0.621l0.31-.62,1.24-.311,0.31-.62h0.621V782.1h0.62l0.31-.621h0.62v-0.31h0.621v-0.31h0.62v-0.311h0.62v-0.31h0.62q0.156-.311.31-0.621l2.792-.931v-0.31h0.62v-0.311l1.861-.62v-0.311h0.93v-0.31h0.62v-0.31h0.931v-0.311h0.62V775.9l9.3-3.1h1.241v-0.31h1.24v-0.31h1.551v-0.311h1.24v-0.31h1.551v-0.311h1.861v-0.31h2.171v-0.31h2.171V770.31C421.5,770,422.818,770.62,423.515,770Zm198.176,20.484v0.621h7.133v0.31c2.3,0.729,5.1.6,8.064,0.621l-0.311.621h4.963v0.31h0.93v0.621h4.342c0.1,0.207.207,0.414,0.31,0.62h0.62v0.311h3.722c0.1,0.207.207,0.414,0.31,0.62h3.412v0.311h0.62v0.621h3.721V797h3.412v0.62c0.375,0.551,2.5.354,3.411,0.311v0.621h3.1v0.931h3.1v0.931h2.791c0.349,1.309,1.237,1,2.791.931v0.621h2.482V802.9H683.1c0.334,1.267.973,1,2.481,0.931v0.62a12.27,12.27,0,0,0,2.481.311v0.621h2.171v0.931H692.4c0.29,1.113.809,0.979,2.171,0.931v0.62l0.93,0.311,1.551-.311v0.311h-0.621c-0.24.367,0.188,0.278,0.311,0.31V808.8h1.86v0.931h2.171l-0.31.62h0.31v0.311h1.861c-0.1.207-.207,0.414-0.31,0.62H704.5v0.932h1.861v0.931h1.861v0.31h-0.311c-0.586.267,0.621,0.31,0.621,0.31v0.311h1.24v0.62h1.861v0.932h1.551v0.62a3.93,3.93,0,0,0,1.55.311v0.62c1.626,0.084,1.582.741,3.1,0.931v0.621h1.24q0.156,0.467.31,0.931a2.6,2.6,0,0,1,1.861.621v0.31h0.931v0.621h1.24l0.31,0.931h1.241q0.154,0.467.31,0.931h1.24v0.621l1.551,0.31v0.621h1.241v0.931h1.24v0.931h1.241q0.155,0.467.31,0.931h0.93v0.621h1.551v0.931h0.93V829.9h1.241v0.621l1.24,0.31v0.621h0.931v0.31c0.353,0.354.123,0,.31,0.621h1.241v0.931h1.24v0.311H741.4c0.1,0.207.207,0.413,0.31,0.62l0.93-.31v0.931h1.241c-0.17.864-.239,0.031,0,0.931h0.93v0.931h0.931v0.621h1.55v0.31c-0.353.354-.123,0-0.31,0.621h1.241q-0.156.311-.31,0.621h0.31c0.353,0.353,0,.123.62,0.31q0.154,0.466.31,0.931h0.931v0.621h0.93v0.621c1.531,0.59.779,0.178,1.241,1.241h0.93c0.493,1.741.665-.238,0.93,1.552h0.931V844.8c0.857,0.224.694,0.086,0.93,0.931,0.857,0.224.694,0.086,0.931,0.931h0.62v0.621h0.93v0.31c0.353,0.354.124,0,.31,0.621,0.857,0.224.694,0.086,0.931,0.931h0.62v0.621c0.857,0.224.694,0.086,0.931,0.931,0.856,0.224.693,0.086,0.93,0.931h0.93v0.931h0.621v0.621c0.856,0.224.693,0.086,0.93,0.931h0.93v0.931h0.931q-0.156.311-.31,0.621h0.31c0.35,0.382-.008.128,0.62,0.31v0.621h0.62v0.931c0.857,0.224.694,0.086,0.931,0.931h0.93l-0.31.621h0.31a1.48,1.48,0,0,0,1.241.931v0.931h0.93v0.931h0.62c0.225,0.857.087,0.694,0.931,0.931v0.621h0.93v0.31h-0.31c-0.071.5,0.523,0.387,0.62,0.621v0.62h0.621V865.9h0.93v0.31c-0.353.353-.124,0-0.31,0.621h0.93v0.931h0.931V868.7h0.62q0.155,0.775.31,1.552h0.93c-0.1.207-.206,0.413-0.31,0.62h0.31c0.35,0.383-.007.129,0.621,0.311,0.283,1.091.754,0.885,0.93,2.172,1.74,0.494-.238.666,1.551,0.931v0.931c0.992,0.257.9,0.366,0.93,1.552h0.931V877.7h0.62c0.2,1.605.7,0.868,0.93,2.483,0.857,0.225.694,0.087,0.931,0.931h0.62q0.154,0.932.31,1.863l0.93-.311q-0.154.466-.31,0.931h0.621a2.874,2.874,0,0,1,.31,1.862l0.93,0.311V886.7l0.931,0.31v0.931h0.62q0.154,0.777.31,1.552h0.62v0.931c1.054,0.273.951,0.578,0.931,1.862,1.745,0.426.312,0.554,0.93,1.552h0.31v-0.31h0.31v1.241c0.993,0.257.9,0.366,0.931,1.552l0.93,0.311c0.084,1.627.74,1.583,0.93,3.1h0.621v0.931h0.62v1.552l0.93,0.31v1.242h0.311c0.353,0.353,0,.124.62,0.31a9.122,9.122,0,0,0,.31,2.173h0.31v-0.311c0.49-.354.289,0.763,0.31,0.932h-0.31q0.154,0.465.31,0.931l0.621-.311v1.552h0.93v2.483h0.93v1.552h0.621v1.552l0.93,0.31a5.658,5.658,0,0,0,.31,2.173c0.315-.24.305-0.382,0.62-0.621v2.483h0.931v1.862h0.62v2.173l0.93,0.31v1.862h0.931v2.173h0.93v2.483h0.931v0.31h-0.31c-0.354.617,0.207,1.6,0.31,1.862l0.62-.31v2.483c1.308,0.349,1,1.237.93,2.793h0.931v1.552H814.6q0.154,0.775.31,1.552h0.62v2.172l0.93,0.31v2.794l0.621-.311c0.552,0.349.352,2.518,0.31,3.414h0.93v0.311a5.459,5.459,0,0,0,0,2.793l0.621,0.31v2.794l0.93,0.62v3.1l0.93,0.621v3.724l0.621-.31v1.241c0.46,0.546.063,1.371,0,2.483l0.93,0.311v4.345l0.62,0.31v0.621h0.31v4.345H823.9v0.931h0.31v4.345l0.62,0.31v6.208l0.62,0.31v1.862h0.31v7.139l0.621,0.31v5.583h0.31q0.154,18.465.31,36.94V1324H692.092c-0.438-4.83-.311-10.81-0.311-16.14V1017.98s0.409,0.01.311-.62h-0.311v-10.55c-0.206-.11-0.413-0.21-0.62-0.31-0.1-2.28-.207-4.55-0.31-6.831l-0.62.311v-4.345c-0.353-.354-0.124,0-0.31-0.621l-0.621.31V991.29h-0.62a21.044,21.044,0,0,0-.31-4.035l-0.62.31v-2.793h-0.931a10.453,10.453,0,0,0-.31-3.414c-0.315.239-.305,0.381-0.62,0.621,0.02-.485.31-2.173,0.31-2.173h-0.31c-0.353-.353,0-0.123-0.62-0.31v-2.483h-0.931V974.84l-0.93-.31v-1.552l-0.62-.31c-0.254-.529.135-2.776-0.931-1.552-0.248-.7-0.031-1.486-0.31-2.173l-0.62.311v-2.173h-0.621q-0.155-.776-0.31-1.552h-0.62a2.443,2.443,0,0,0-.62-1.551h-0.31v-1.242c-0.993-.256-0.9-0.366-0.931-1.552H676.9c-0.2-1.6-.7-0.867-0.93-2.483h-0.931q0.156-.309.31-0.62h-0.31V957.77h-0.62v-0.31h0.31c0.272-.516-0.421-0.267-0.62-0.31v-1.242h-0.31v0.31c-0.491.355-.289-0.762-0.311-0.931h-0.93v-1.241l-0.93-.31V952.8H671v-0.931h-0.93v-0.931c-0.857-.224-0.694-0.086-0.93-0.931h-0.621q-0.154-.621-0.31-1.241c-0.857-.225-0.694-0.087-0.93-0.931a1.754,1.754,0,0,1-1.551-1.552c-0.857-.225-0.694-0.087-0.93-0.931-0.857-.225-0.694-0.087-0.931-0.931h-0.93c-0.224-.858-0.087-0.695-0.931-0.931v-0.621h-0.93v-0.931h-0.93v-0.931h-0.931c-0.612-.932-0.876-0.293-1.24-1.552h-1.241v-0.931h-0.93c-0.462-1.75-.541-0.287-1.551-0.931q0.156-.311.31-0.621c-1.009-.529-0.723.227-1.55,0q0.155-.31.31-0.621a2.43,2.43,0,0,0-1.551-.31v-0.931h-1.24v-0.621a3.924,3.924,0,0,0-1.551-.31v-0.621h-1.861v-0.31c0.353-.354.124,0,0.31-0.621h-1.861V931.7h-1.55q-0.156-.466-0.31-0.931H641.85l0.31-.621h-2.171l0.31-.931h-2.171v-0.931h-2.171v-0.621c-0.624-.11-0.62-0.31-0.62-0.31h-1.861l-0.31-.621h-2.791l0.31-.621c-0.33-.525-2.246-0.351-3.1-0.31v-0.621c-0.376-.55-2.5-0.354-3.412-0.31v-0.621H620.14q-0.154-.465-0.31-0.931h-5.272V922.7l-8.064-.31v-0.621H585.405q-0.154.311-.31,0.621l-7.443.31,0.31,0.621h-1.24l0.93-2.793h0.31v-0.621h0.31q0.156-.931.31-1.862l0.931-.621q0.154-1.086.31-2.173h0.31v-0.62h0.31q0.156-.932.31-1.862h0.31v-0.932h0.311v-0.931h0.31v-0.931h0.31q0.154-1.086.31-2.172h0.31v-0.621l0.62-.31,0.621-3.414h0.31v-0.932h0.31v-1.551h0.31v-0.931h0.31V898.8h0.31v-1.552h0.31v-1.241h0.311q0.155-1.4.31-2.793l0.62-.311q0.154-1.551.31-3.1c0.705-2.259.873-5.431,1.551-7.76v-2.793h0.31v-2.793h0.31q0.154-3.725.31-7.449l0.62-.31V848.212l-0.62-.311q-0.154-3.723-.31-7.448L586.956,824l-0.62-.31q-0.156-1.4-.31-2.793h-0.311q-0.155-1.4-.31-2.794H585.1v-0.931h-0.31v-1.241h-0.31v-1.552h-0.31v-0.931h-0.31l-0.621-3.414-0.62-.31v-0.621H582.3q-0.154-1.086-.31-2.173h-0.31V806h-0.31v-0.931h-0.311V804.14h-0.31q-0.155-.932-0.31-1.862h-0.31v-0.621h-0.31q-0.154-1.086-.31-2.172l-0.931-.621v-0.621h-0.31V797h-0.31q-0.154-.777-0.31-1.552h-0.31q-0.156-.621-0.31-1.242h-0.31q-0.156-.93-0.311-1.862H576.1v-0.621h-0.31a2.624,2.624,0,0,1-.62-1.241c1.637-.608,4.667-0.326,6.823-0.31,0.565-.5,2.057-0.31,3.1-0.311h23.57v0.311h7.754v0.31h5.272Zm-125.6,218.5h-0.621V1311.9c0,3.94.3,8.67-.31,12.1H360.248V1019.84c0.479-1.71.31-4.61,0.31-6.82v-12.11a2.788,2.788,0,0,1,1.551-.62c0.557,0.6.582,0.27,1.24,0.62v0.31h0.62v0.31H364.9v0.31h0.62l0.62,0.93h0.931v0.31h0.62v0.31c0.517,0.11,1.034.21,1.551,0.31v0.31h0.93v0.31h0.62v0.32h1.241v0.31c0.413,0.1.827,0.2,1.24,0.31v0.31h0.621c0.1,0.2.206,0.41,0.31,0.62h1.24v0.31h0.621v0.31c0.62,0.1,1.24.2,1.86,0.31v0.31h0.621v0.31c1.757,0.41,3.515.83,5.272,1.24v0.31h0.62c0.1,0.21.207,0.41,0.31,0.62H386.3v0.31h0.93v0.31h0.931v0.31c1.24,0.21,2.481.42,3.721,0.62v0.31l5.583,0.93,0.31,0.63c1.034,0.1,2.068.2,3.1,0.31,1.61,0.48,3.97.76,5.583,1.24h2.481v0.31h2.481v0.31H413.9v0.31h3.411v0.31h4.032c0.1,0.21.207,0.41,0.31,0.62h21.089c0.1-.21.207-0.41,0.311-0.62,2.48-.1,4.962-0.21,7.443-0.31v-0.31h2.481v-0.31h2.481c2.447-.72,5.71-0.84,8.063-1.55h1.861v-0.31h1.241l0.31-.63h1.551v-0.31h1.24v-0.31h1.241v-0.31c0.93-.1,1.861-0.2,2.791-0.31v-0.31h0.93v-0.31h1.551v-0.31h0.93v-0.31H478.1v-0.31h1.55c0.1-.21.207-0.41,0.311-0.62h0.62v-0.31c1.757-.41,3.515-0.83,5.272-1.24v-0.31h0.62v-0.31c0.621-.11,1.241-0.21,1.861-0.31v-0.31h0.62v-0.31h1.241c0.1-.21.207-0.42,0.31-0.62h0.62v-0.31c0.414-.11.828-0.21,1.241-0.31v-0.31h1.241v-0.32h0.62v-0.31h0.93v-0.31c0.31-.1.62-0.2,0.931-0.31v5.59Z" transform="translate(-341 -677)"/>
</svg>
